# xmcd CD database file
#
# Track frame offsets:
#	150
#	15677
#	36345
#	55903
#	63495
#	87285
#	103141
#	112831
#	135946
#	160182
#	184050
#	203512
#	217274
#	231962
#
# Disc length: 3589 seconds
#
# Revision: 1
# Processed by: cddbd v1.5.2PL0 Copyright (c) Steve Scherf et al.
# Submitted via: CDex 1.51
#
DISCID=be0e030e
DTITLE=Nils Landgren, Esbjörn Svensson - Swedish Folk Modern
DYEAR=2004
DGENRE=Jazz
TTITLE0=Hornlåt
TTITLE1=Vallat från Jämtland
TTITLE2=Lapp-Nils Polska
TTITLE3=Free Esbjörn
TTITLE4=Midsommarvaka from Swedish Rapsody No. 1
TTITLE5=Hymn: Morgon Mellan Fjällen
TTITLE6=Halling
TTITLE7=The Winters Tale
TTITLE8=Vallat från Härjedalen
TTITLE9=Gärdebylåten
TTITLE10=Visa från Leksand
TTITLE11=Vaggvisa
TTITLE12=Free Nils
TTITLE13=Lapp-Nils Polska
EXTD=YEAR: 2004
EXTT0=
EXTT1=
EXTT2=
EXTT3=
EXTT4=
EXTT5=
EXTT6=
EXTT7=
EXTT8=
EXTT9=
EXTT10=
EXTT11=
EXTT12=
EXTT13=
PLAYORDER=
